<svg height='100px' width='100px'  fill="#c20e11" xmlns="http://www.w3.org/2000/svg" xmlns:xlink="http://www.w3.org/1999/xlink" version="1.1" preserveAspectRatio="none" x="0px" y="0px" viewBox="0 0 100 100"><defs><g id="a"><path fill="#c20e11" stroke="none" d=" M 84.25 24.25 Q 86.0037109375 22.4890625 86 20 86.0037109375 17.5109375 84.25 15.75 82.4890625 13.9962890625 80 14 77.5109375 13.9962890625 75.75 15.75 L 50 41.5 24.25 15.75 Q 22.4890625 13.9962890625 20 14 17.5109375 13.9962890625 15.75 15.75 13.9962890625 17.5109375 14 20 13.9962890625 22.4890625 15.75 24.25 L 41.5 50 15.75 75.75 Q 13.9962890625 77.5109375 14 80 13.9962890625 82.4890625 15.75 84.25 17.5109375 86.0037109375 20 86 22.4890625 86.0037109375 24.25 84.25 L 50 58.5 75.75 84.25 Q 77.5109375 86.0037109375 80 86 82.4890625 86.0037109375 84.25 84.25 86.0037109375 82.4890625 86 80 86.0037109375 77.5109375 84.25 75.75 L 58.5 50 84.25 24.25 Z"></path></g></defs><g transform="matrix( 1, 0, 0, 1, 0,0) "><use xlink:href="#a"></use></g></svg>