<svg height='100px' width='100px'  fill="#0a8f23" xmlns="http://www.w3.org/2000/svg" xmlns:xlink="http://www.w3.org/1999/xlink" version="1.1" x="0px" y="0px" viewBox="0 0 100 100" enable-background="new 0 0 100 100" xml:space="preserve"><path d="M72.265,33.712c1.084,1.084,1.667,2.268,1.717,3.551c0.067,1.301-0.634,2.668-2.084,4.118L47.356,65.924  c-0.1,0.1-0.2,0.2-0.317,0.284c-0.067,0.1-0.15,0.15-0.217,0.217c-0.35,0.317-0.7,0.567-1.034,0.8c-0.017,0.017-0.033,0-0.033,0.033  c-0.35,0.217-0.684,0.383-1.017,0.483c-0.333,0.133-0.667,0.2-1,0.233c-0.15,0.017-0.317,0.017-0.484,0.017  c-0.917-0.05-1.801-0.333-2.584-0.917c-0.067-0.033-0.15-0.083-0.217-0.15c-0.217-0.117-0.4-0.3-0.584-0.483  c-0.083-0.05-0.183-0.15-0.267-0.233L28.116,54.72c-1.451-1.451-2.151-2.818-2.101-4.102c0.05-1.284,0.617-2.451,1.701-3.534  C28.8,46,29.984,45.416,31.284,45.35c1.284-0.05,2.651,0.65,4.101,2.101l7.953,7.953l21.291-21.291  c1.451-1.451,2.818-2.151,4.102-2.101C69.998,32.045,71.182,32.628,72.265,33.712z"></path></svg>