<svg width="658" height="94" viewBox="0 0 658 94" fill="none" xmlns="http://www.w3.org/2000/svg">
<path fill-rule="evenodd" clip-rule="evenodd" d="M91.6953 0.104946L110.936 0V16.8894H127.79V35.3809H110.936V66.4031C110.936 68.9918 111.579 70.8738 112.874 72.0702C114.161 73.2666 116.057 73.9383 118.541 74.0852C121.024 74.2321 124.11 74.2111 127.79 74.0082V91.4573C114.567 92.9476 105.24 91.7022 99.8252 87.7282C94.403 83.7542 91.6953 76.6459 91.6953 66.4031V0.104946ZM167.648 14.8045C178.087 14.8045 186.196 18.4356 191.961 25.6909V16.8894H211.201V91.4714H191.961V82.6698C186.189 89.9251 178.087 93.5563 167.648 93.5563C157.707 93.5563 149.178 89.7502 142.07 82.1451C134.961 74.54 131.407 65.2138 131.407 54.1804C131.407 43.147 134.961 33.8208 142.07 26.2157C149.178 18.6105 157.21 14.8045 167.648 14.8045ZM171.231 75.2116C177.199 75.2116 182.138 73.2526 186.07 69.3206C189.995 65.3957 191.961 60.3442 191.961 54.1804C191.961 48.0165 189.995 42.9721 186.07 39.0401C182.145 35.1151 177.192 33.1491 171.231 33.1491C165.27 33.1491 160.344 35.1151 156.468 39.0401C152.592 42.9721 150.654 48.0095 150.654 54.1804C150.654 60.3512 152.592 65.3957 156.468 69.3206C160.344 73.2526 165.263 75.2116 171.231 75.2116ZM267.578 71.8533C264.542 73.5954 261.092 74.4629 257.209 74.4629C251.444 74.4629 246.666 72.5529 242.888 68.7189C239.11 64.8918 237.221 60.0433 237.221 54.1733C237.221 48.3033 239.11 43.3078 242.888 39.4808C246.666 35.6538 251.437 33.7367 257.209 33.7367C260.987 33.7367 264.395 34.6323 267.424 36.4234C270.454 38.2144 272.72 40.6492 274.211 43.7346L290.764 34.0376C287.679 28.1746 283.159 23.501 277.191 20.0167C271.223 16.5395 264.612 14.7974 257.356 14.7974C246.12 14.7974 236.745 18.5755 229.245 26.1316C221.738 33.6878 217.98 43.035 217.98 54.1733C217.98 65.3116 221.731 74.6588 229.245 82.215C236.752 89.7711 246.12 93.5492 257.356 93.5492C264.612 93.5492 271.23 91.7861 277.191 88.2529C283.152 84.7197 287.784 80.0251 291.065 74.1551L274.358 64.612C272.867 67.6974 270.601 70.1042 267.571 71.8463L267.578 71.8533ZM332.548 74.4629C336.431 74.4629 339.88 73.5954 342.917 71.8533L342.91 71.8463C345.939 70.1042 348.206 67.6974 349.696 64.612L366.404 74.1551C363.123 80.0251 358.498 84.7267 352.53 88.2529C346.569 91.7861 339.95 93.5492 332.695 93.5492C321.459 93.5492 312.091 89.7711 304.583 82.215C297.076 74.6588 293.326 65.3116 293.326 54.1733C293.326 43.035 297.076 33.6878 304.583 26.1316C312.084 18.5755 321.459 14.7974 332.695 14.7974C339.95 14.7974 346.562 16.5395 352.53 20.0167C358.498 23.501 363.018 28.1746 366.103 34.0376L349.55 43.7346C348.059 40.6492 345.792 38.2144 342.763 36.4234C339.734 34.6323 336.326 33.7367 332.548 33.7367C326.776 33.7367 322.005 35.6538 318.227 39.4808C314.448 43.3078 312.559 48.3033 312.559 54.1733C312.559 60.0433 314.448 64.8918 318.227 68.7189C322.005 72.5529 326.783 74.4629 332.548 74.4629ZM429.476 25.6909C423.711 18.4356 415.602 14.8045 405.163 14.8045C394.725 14.8045 386.693 18.6105 379.585 26.2157C372.476 33.8208 368.922 43.147 368.922 54.1804C368.922 65.2138 372.476 74.54 379.585 82.1451C386.693 89.7502 395.222 93.5563 405.163 93.5563C415.602 93.5563 423.704 89.9251 429.476 82.6698V91.4714H448.716V16.8894H429.476V25.6909ZM423.585 69.3206C419.653 73.2526 414.714 75.2116 408.746 75.2116C402.778 75.2116 397.859 73.2526 393.983 69.3206C390.107 65.3957 388.169 60.3512 388.169 54.1804C388.169 48.0095 390.107 42.9721 393.983 39.0401C397.859 35.1151 402.785 33.1491 408.746 33.1491C414.707 33.1491 419.66 35.1151 423.585 39.0401C427.51 42.9721 429.476 48.0165 429.476 54.1804C429.476 60.3442 427.51 65.3957 423.585 69.3206ZM519.569 25.5439C524.536 18.3866 531.945 14.8044 541.789 14.8044L541.796 14.7974C550.346 14.7974 557.181 17.582 562.303 23.1511C567.424 28.7203 569.985 36.1785 569.985 45.5257V91.4643H550.745V46.869C550.745 42.3983 549.646 38.9141 547.463 36.4304C545.274 33.9466 542.188 32.7013 538.214 32.7013C533.841 32.7013 530.434 34.1425 527.999 37.0251C525.565 39.9146 524.347 44.0914 524.347 49.5557V91.4643H505.107V46.869C505.107 42.3983 504.009 38.9141 501.826 36.4304C499.636 33.9466 496.55 32.7013 492.576 32.7013C488.302 32.7013 484.894 34.1425 482.362 37.0251C479.822 39.9146 478.556 44.0914 478.556 49.5557V91.4643H459.315V16.8893H478.556V24.7953C483.026 18.1347 490.142 14.8044 499.286 14.8044C508.43 14.8044 515.189 18.3866 519.569 25.5439ZM60.5541 25.6907C54.789 18.4354 46.6802 14.8042 36.2415 14.8042C25.8028 14.8042 17.7709 18.6103 10.6626 26.2154C3.55419 33.8205 0 43.1398 0 54.1801C0 65.2205 3.55419 74.5398 10.6626 82.1449C17.7709 89.75 26.2996 93.556 36.2415 93.556C46.6802 93.556 54.782 89.9249 60.5541 82.6696V91.4711H79.7943V16.8892H60.5541V25.6907ZM54.6631 69.3204C50.7311 73.2524 45.7916 75.2114 39.8237 75.2114C33.8557 75.2114 28.9372 73.2524 25.0612 69.3204C21.1852 65.3954 19.2472 60.351 19.2472 54.1801C19.2472 48.0093 21.1852 42.9719 25.0612 39.0399C28.9372 35.1149 33.8627 33.1489 39.8237 33.1489C45.7846 33.1489 50.7381 35.1149 54.6631 39.0399C58.5881 42.9719 60.5541 48.0163 60.5541 54.1801C60.5541 60.344 58.5881 65.3954 54.6631 69.3204ZM614.447 14.8042C624.885 14.8042 632.994 18.4354 638.759 25.6907V16.8892H657.999V91.4711H638.759V82.6696C632.987 89.9249 624.885 93.556 614.447 93.556C604.505 93.556 595.976 89.75 588.868 82.1449C581.759 74.5398 578.205 65.2205 578.205 54.1801C578.205 43.1398 581.759 33.8205 588.868 26.2154C595.976 18.6103 604.008 14.8042 614.447 14.8042ZM618.029 75.2114C623.997 75.2114 628.936 73.2524 632.868 69.3204C636.793 65.3954 638.759 60.344 638.759 54.1801C638.759 48.0163 636.793 42.9719 632.868 39.0399C628.943 35.1149 623.99 33.1489 618.029 33.1489C612.068 33.1489 607.142 35.1149 603.266 39.0399C599.39 42.9719 597.452 48.0093 597.452 54.1801C597.452 60.351 599.39 65.3954 603.266 69.3204C607.142 73.2524 612.061 75.2114 618.029 75.2114Z" fill="#202020"/>
</svg>
